# xmcd
#
# Track frame offsets:
#	150
#	10170
#	22684
#	33931
#	46207
#	58192
#	67489
#	82327
#	96857
#	113761
#
# Disc length: 1649 seconds
#
# Revision: 1
# Processed by: cddbd v1.5.2PL0 Copyright (c) Steve Scherf et al.
# Submitted via: audiograbber 1.83.01
#
DISCID=80066f0a
DTITLE=Lonnie Lee - Light of Love
DYEAR=1900
DGENRE=Country
TTITLE0=Light of Love
TTITLE1=Feel you're Here
TTITLE2=Lonely nights and lonely Days
TTITLE3=Long long Time
TTITLE4=Just a Memory
TTITLE5=Who,what,why and When
TTITLE6=Like we used to Do
TTITLE7=Best Friends
TTITLE8=Can't you see it in my eyes
TTITLE9=My guiding Light
EXTD=
EXTT0=
EXTT1=
EXTT2=
EXTT3=
EXTT4=
EXTT5=
EXTT6=
EXTT7=
EXTT8=
EXTT9=
PLAYORDER=
